inDegrees=yes
name=ik_tiny_file
DataType=double
version=3
OpenSimVersion=4.4-2022-07-23-0e9fedc
endheader
time	pelvis_tilt	pelvis_list	pelvis_rotation	pelvis_tx	pelvis_ty	pelvis_tz	hip_flexion_r	hip_adduction_r	hip_rotation_r	knee_angle_r	knee_angle_r_beta	ankle_angle_r	subtalar_angle_r	mtp_angle_r	hip_flexion_l	hip_adduction_l	hip_rotation_l	knee_angle_l	knee_angle_l_beta	ankle_angle_l	subtalar_angle_l	mtp_angle_l	lumbar_extension	lumbar_bending	lumbar_rotation	arm_flex_r	arm_add_r	arm_rot_r	elbow_flex_r	pro_sup_r	wrist_flex_r	wrist_dev_r	arm_flex_l	arm_add_l	arm_rot_l	elbow_flex_l	pro_sup_l	wrist_flex_l	wrist_dev_l
9.119999999999999	39.3507791074372	84.80119469437101	-42.24736171426621	0	0.9399999999999999	0	44.98027344035891	-10.00003486374536	0	59.99658965197696	1.047138029394957	-5.004679221405428	0	0	44.98027344035891	-10.00003486374536	0	59.99658965197696	1.047138029394957	-5.004679221405428	0	0	0.7105704890245966	1.752159367160641	5.613531243001536	24.86372042176992	-10.97813531610494	11.18063000250767	3.724276185121342	44.99993188628206	0	5.000000137478217	-0.796031011358589	-0.6182830247397265	0.3211208545058296	0.08843190310911371	44.99993188628206	0	5.000000137478217
9.140000000000001	39.37325752986746	84.8018287130372	-42.25788154674882	0	0.9399999999999999	0	44.98028560477517	-10.00003478836327	0	59.99659136571525	1.047138059305333	-5.004675217664834	0	0	44.98028560477517	-10.00003478836327	0	59.99659136571525	1.047138059305333	-5.004675217664834	0	0	0.609036345329958	1.719886655769115	5.460382293600833	23.67968306881487	-10.70256679038408	10.86467564358447	3.718809090225284	44.99993200311803	0	5.000000137478404	-0.7308220773514488	-0.6130622414235491	0.2322320260409507	0.08844877036966645	44.99993200311803	0	5.000000137478404
9.16	39.40511233566649	84.79465153994174	-42.28971525302406	0	0.9399999999999999	0	44.98029652326326	-10.00003472079292	0	59.9965929039335	1.047138086152306	-5.004671624683968	0	0	44.98029652326326	-10.00003472079292	0	59.9965929039335	1.047138086152306	-5.004671624683968	0	0	0.4695952515002357	1.68265859487343	5.300590842460708	22.57054506379174	-10.5008266604515	10.38878473650957	3.817153629892557	44.99993210788961	0	5.000000137478571	-0.648133404431498	-0.6085800536630595	0.1812810160362109	0.08878203664766413	44.99993210788961	0	5.000000137478571
9.18	39.43835288400735	84.779603449563	-42.35321722766563	0	0.9399999999999999	0	44.98030752853156	-10.00003465278279	0	59.99659445461984	1.047138113216888	-5.004668003965751	0	0	44.98030752853156	-10.00003465278279	0	59.99659445461984	1.047138113216888	-5.004668003965751	0	0	0.3304414000341275	1.6981983702674	5.227211013913351	21.26358279944944	-10.31343079784137	9.608180916014641	4.210084631877124	44.99993221338669	0	5.000000137478735	-0.5388145961519129	-0.6489114449552793	0.1058085837627931	0.08942149245781261	44.99993221338669	0	5.000000137478735
9.199999999999999	39.44978549913108	84.78400119036719	-42.41153491166175	0	0.9399999999999999	0	44.98031705380652	-10.00003459401316	0	59.9965957972472	1.047138136650156	-5.004664871053342	0	0	44.98031705380652	-10.00003459401316	0	59.9965957972472	1.047138136650156	-5.004664871053342	0	0	0.1110290762215365	1.696544543802043	5.181959965503389	20.28723775710625	-10.10770194658153	9.091239739424413	4.246842772547799	44.99993230458966	0	5.000000137478881	-0.353054054443027	-0.6771693049650487	-0.004796445122314805	0.08963029115118069	44.99993230458966	0	5.000000137478881
9.220000000000001	39.441204689839	84.81446097241283	-42.43691529393917	0	0.9399999999999999	0	44.98032308505242	-10.00003455688327	0	59.99659664830238	1.047138151503871	-5.004662888316045	0	0	44.98032308505242	-10.00003455688327	0	59.99659664830238	1.047138151503871	-5.004662888316045	0	0	-0.04635150825852213	1.662362033278601	5.040494689478534	19.60134025416084	-9.740903627938872	9.020765571964816	3.929173272863104	44.99993236223939	0	5.00000013747897	-0.2184635063783882	-0.6663441794289163	-0.1305433002638349	0.08993326192747103	44.99993236223939	0	5.00000013747897
9.24	39.43111043327968	84.89857917281492	-42.45397976799767	0	0.9399999999999999	0	44.98033192783278	-10.00003450246677	0	59.99659789551666	1.047138173271867	-5.004659981244409	0	0	44.98033192783278	-10.00003450246677	0	59.99659789551666	1.047138173271867	-5.004659981244409	0	0	-0.02511517092541752	1.543243130161685	4.808338877492356	18.91693274307434	-9.163988409416378	9.27146500733298	3.370332276571664	44.99993244674592	0	5.000000137479101	-0.1882036949533901	-0.7633300544518168	-0.3987962109505612	0.09033985269709711	44.99993244674592	0	5.000000137479101
9.26	39.42053577457603	84.96646328216369	-42.46327817779317	0	0.9399999999999999	0	44.98034290392243	-10.00003443498504	0	59.99659944348586	1.047138200289026	-5.004656373268717	0	0	44.98034290392243	-10.00003443498504	0	59.99659944348586	1.047138200289026	-5.004656373268717	0	0	0.004184443981556953	1.461719079096384	4.569294098713091	18.50097174192749	-8.616263429325553	10.28013528340161	2.333851465623304	44.99993255157356	0	5.000000137479263	-0.1770905524354198	-0.8898962327005018	-0.5723636437503604	0.0900874536132678	44.99993255157356	0	5.000000137479263
9.279999999999999	39.40445742388557	84.99185100337739	-42.46895042544377	0	0.9399999999999999	0	44.98035519107641	-10.00003435956535	0	59.99660117677975	1.047138230540711	-5.004652335414142	0	0	44.98035519107641	-10.00003435956535	0	59.99660117677975	1.047138230540711	-5.004652335414142	0	0	-0.01376543192897576	1.398343418040401	4.33620331189052	18.12523595023691	-8.209551900724231	11.39184302644886	1.404661175818591	44.99993266878597	0	5.000000137479445	-0.2050134074184865	-0.9614263245540424	-0.6701156523323462	0.09105228778098332	44.99993266878597	0	5.000000137479445
9.300000000000001	39.38692459643954	85.01250014445976	-42.46085755468522	0	0.9399999999999999	0	44.98036755944479	-10.00003428373683	0	59.99660292115888	1.04713826098587	-5.004648271397777	0	0	44.98036755944479	-10.00003428373683	0	59.99660292115888	1.04713826098587	-5.004648271397777	0	0	-0.07611171574118773	1.331726981440666	4.168540816311309	17.50967017605917	-7.699669990242579	11.9778968516344	0.8890598728521737	44.99993278668063	0	5.000000137479629	-0.2182257239198581	-0.9570520972636445	-0.7087110960963068	0.09106133387052463	44.99993278668063	0	5.000000137479629
9.32	39.36493054557636	85.02731953729813	-42.45170228687367	0	0.9399999999999999	0	44.98037804458166	-10.00003421958381	0	59.996604400834	1.047138286811073	-5.004644827501063	0	0	44.98037804458166	-10.00003421958381	0	59.996604400834	1.047138286811073	-5.004644827501063	0	0	-0.1394619930109412	1.27046714754888	4.051100878131538	16.42986533867553	-7.186815542280586	12.46861743103701	0.9137362206801031	44.99993288647481	0	5.000000137479785	-0.2036555902708443	-0.9495973911095049	-0.7747265305314748	0.0914753083142497	44.99993288647481	0	5.000000137479785
9.34	39.34451356779557	85.04202012014733	-42.44595348868445	0	0.9399999999999999	0	44.98038844220454	-10.00003415604752	0	59.99660586828493	1.047138312422923	-5.004641413010402	0	0	44.98038844220454	-10.00003415604752	0	59.99660586828493	1.047138312422923	-5.004641413010402	0	0	-0.1808380433852085	1.196774217876342	3.872491099486553	15.38789651758103	-6.709978659803257	13.04066440213885	0.8232384585786952	44.99993298534707	0	5.000000137479938	-0.1628963062105409	-1.020565785025875	-0.9854147891546411	0.09343204887815165	44.99993298534707	0	5.000000137479938
9.359999999999999	39.32494249010386	85.10301240234526	-42.41815113177381	0	0.9399999999999999	0	44.98039958211682	-10.00003408805975	0	59.99660744046209	1.047138339862591	-5.004637755377847	0	0	44.98039958211682	-10.00003408805975	0	59.99660744046209	1.047138339862591	-5.004637755377847	0	0	-0.1336353479199488	1.073916464694357	3.694489991567766	14.41229021837465	-6.268135491624982	13.1825728085533	0.8286567150954249	44.99993309118719	0	5.000000137480103	-0.1600899255752706	-1.104057943034928	-1.167564744605435	0.09474171350079513	44.99993309118719	0	5.000000137480103
9.380000000000001	39.30987003537921	85.09109811621332	-42.39412551942896	0	0.9399999999999999	0	44.98040842597376	-10.00003403411913	0	59.99660868817839	1.047138361639349	-5.004634851722785	0	0	44.98040842597376	-10.00003403411913	0	59.99660868817839	1.047138361639349	-5.004634851722785	0	0	-0.2231799778495923	1.070280853585392	3.597403257624918	13.55808516492266	-5.776879161105549	12.20837509252037	0.9643992360805794	44.99993317518031	0	5.00000013748023	-0.07622163898106131	-1.052755159403666	-1.238473794515944	0.09523681309742739	44.99993317518031	0	5.00000013748023
9.4	39.29795035431498	85.10835900459018	-42.37012029304002	0	0.9399999999999999	0	44.98041832418981	-10.00003397380566	0	59.99661008451346	1.047138386009993	-5.00463160228182	0	0	44.98041832418981	-10.00003397380566	0	59.99661008451346	1.047138386009993	-5.00463160228182	0	0	-0.2675109098970084	1.031725854113215	3.586227655990919	12.65487311721006	-5.40979274116768	10.89131193201388	1.097437219029499	44.99993326912601	0	5.000000137480376	-0.02968923520971476	-1.033739097300724	-1.21648174921019	0.09558673067796432	44.99993326912601	0	5.000000137480376
9.42	39.3065080555798	85.08555395475359	-42.3550609234494	0	0.9399999999999999	0	44.98042837696495	-10.00003391262417	0	59.99661150277377	1.047138410763305	-5.004628302705573	0	0	44.98042837696495	-10.00003391262417	0	59.99661150277377	1.047138410763305	-5.004628302705573	0	0	-0.3393875980504059	1.033929308675843	3.573147642528864	11.61213158390448	-4.910554769937527	9.40020413636161	1.256177367849592	44.99993336445772	0	5.000000137480522	0.04894368474240711	-1.025056724208711	-1.1733714887491	0.09620756312056258	44.99993336445772	0	5.000000137480522
9.44	39.3316802863588	85.06066301180333	-42.34931179267333	0	0.9399999999999999	0	44.98043920936301	-10.00003384677217	0	59.99661303085591	1.04713843743337	-5.004624747733977	0	0	44.98043920936301	-10.00003384677217	0	59.99661303085591	1.04713843743337	-5.004624747733977	0	0	-0.4125899288622168	1.042798098609757	3.515293163293734	10.81979707902465	-4.589326752491395	8.343617031669632	1.240511985374145	44.99993346710433	0	5.000000137480678	0.07958052048734524	-1.00527506837818	-1.172316309131209	0.09635618070250217	44.99993346710433	0	5.000000137480678
